# xmcd
#
# Track frame offsets: 
#        150
#        16623
#        38601
#        56537
#        72455
#        98215
#        124270
#        143000
#
# Disc length: 2098 seconds
#
# Revision: 0
# Processed by: cddbd v1.5.2PL0 Copyright (c) Steve Scherf et al.
# Submitted via: ExactAudioCopy v0.99pb4
#
DISCID=64083008
DTITLE=Kashmere Stage Band - Our Thing
DYEAR=1969
DGENRE=Funk
TTITLE0=Boss City
TTITLE1=Misty
TTITLE2=Take Five
TTITLE3=Burning Spear
TTITLE4=Billie Joe
TTITLE5=Summertime
TTITLE6=Georgia
TTITLE7=Every Day I Have The Blues
EXTD=
EXTT0=
EXTT1=
EXTT2=
EXTT3=
EXTT4=
EXTT5=
EXTT6=
EXTT7=
PLAYORDER=
